#N struct 1128-scope float x float y float x1 float y1 float c1 float c2 float c3 float c4 array vector-min 1128-scope-element array vector-max 1128-scope-element float curx;
#N struct 1128-scope-element float y;
#N struct 1146-scope float x float y float x1 float y1 float c1 float c2 float c3 float c4 array vector-min 1146-scope-element array vector-max 1146-scope-element float curx;
#N struct 1146-scope-element float y;
#N canvas 1020 236 1012 815 12;
#X text 185 532 yann seznec // 2022 // yannseznec.com;
#X obj 452 715 send \$1-newFile;
#X obj 456 637 loadbang;
#X obj 602 599 bng 19 250 50 0 empty empty empty 0 -10 0 12 #fcfcfc #000000 #000000;
#X msg 455 669 ../../Audio/Music/arp.aif;
#X obj 31 20 ys.granularGame_1 1;
#X obj 410 19 ys.granularGame_2 2;
#X connect 2 0 4 0;
#X connect 3 0 4 0;
#X connect 4 0 1 0;
